<svg version="1.1" viewBox="0.0 0.0 960.0 720.0" fill="none" stroke="none" stroke-linecap="square" stroke-miterlimit="10" xmlns:xlink="http://www.w3.org/1999/xlink" xmlns="http://www.w3.org/2000/svg"><clipPath id="p.0"><path d="m0 0l960.0 0l0 720.0l-960.0 0l0 -720.0z" clip-rule="nonzero"/></clipPath><g clip-path="url(#p.0)"><path fill="#000000" fill-opacity="0.0" d="m0 0l960.0 0l0 720.0l-960.0 0z" fill-rule="evenodd"/><path fill="#f1c232" d="m224.31158 359.98328l0 0c0 -135.40979 114.48114 -245.18112 255.70078 -245.18112l0 0c67.81607 0 132.85458 25.831505 180.80777 71.81188c47.953186 45.980377 74.893005 108.34314 74.893005 173.36923l0 0c0 135.40976 -114.48114 245.18109 -255.70078 245.18109l0 0c-141.21964 0 -255.70078 -109.77133 -255.70078 -245.18109z" fill-rule="evenodd"/><path fill="#ffffff" d="m240.68878 288.05844l167.36966 0l0 -152.84526l143.88315 0l0 152.84526l167.36963 0l0 143.88312l-167.36963 0l0 152.84525l-143.88315 0l0 -152.84525l-167.36966 0z" fill-rule="evenodd"/></g></svg>